<?xml version="1.0" encoding="UTF-8"?>
<!--Generator: Apple Native CoreSVG 123-->
<!DOCTYPE svg
PUBLIC "-//W3C//DTD SVG 1.1//EN"
       "http://www.w3.org/Graphics/SVG/1.1/DTD/svg11.dtd">
<svg version="1.1" xmlns="http://www.w3.org/2000/svg" xmlns:xlink="http://www.w3.org/1999/xlink" width="3300" height="2200">
 <!--glyph: "uni1001FE.medium", point size: 100.000000, font version: "Version 15.0d7e11", template writer version: "5"-->
 <g id="Notes">
  <rect height="2200" id="artboard" style="fill:white;opacity:1" width="3300" x="0" y="0"/>
  <line id="" style="fill:none;stroke:black;opacity:1;stroke-width:0.5;" x1="263" x2="3036" y1="292" y2="292"/>
  <text style="stroke:none;fill:black;font-family:-apple-system,&quot;SF Pro Display&quot;,&quot;SF Pro Text&quot;,Helvetica,sans-serif;font-weight:bold;" transform="matrix(1 0 0 1 263 322)">Weight/Scale Variations</text>
  <text style="stroke:none;fill:black;font-family:-apple-system,&quot;SF Pro Display&quot;,&quot;SF Pro Text&quot;,Helvetica,sans-serif;text-anchor:middle;" transform="matrix(1 0 0 1 559.711 322)">Ultralight</text>
  <text style="stroke:none;fill:black;font-family:-apple-system,&quot;SF Pro Display&quot;,&quot;SF Pro Text&quot;,Helvetica,sans-serif;text-anchor:middle;" transform="matrix(1 0 0 1 856.422 322)">Thin</text>
  <text style="stroke:none;fill:black;font-family:-apple-system,&quot;SF Pro Display&quot;,&quot;SF Pro Text&quot;,Helvetica,sans-serif;text-anchor:middle;" transform="matrix(1 0 0 1 1153.13 322)">Light</text>
  <text style="stroke:none;fill:black;font-family:-apple-system,&quot;SF Pro Display&quot;,&quot;SF Pro Text&quot;,Helvetica,sans-serif;text-anchor:middle;" transform="matrix(1 0 0 1 1449.84 322)">Regular</text>
  <text style="stroke:none;fill:black;font-family:-apple-system,&quot;SF Pro Display&quot;,&quot;SF Pro Text&quot;,Helvetica,sans-serif;text-anchor:middle;" transform="matrix(1 0 0 1 1746.56 322)">Medium</text>
  <text style="stroke:none;fill:black;font-family:-apple-system,&quot;SF Pro Display&quot;,&quot;SF Pro Text&quot;,Helvetica,sans-serif;text-anchor:middle;" transform="matrix(1 0 0 1 2043.27 322)">Semibold</text>
  <text style="stroke:none;fill:black;font-family:-apple-system,&quot;SF Pro Display&quot;,&quot;SF Pro Text&quot;,Helvetica,sans-serif;text-anchor:middle;" transform="matrix(1 0 0 1 2339.98 322)">Bold</text>
  <text style="stroke:none;fill:black;font-family:-apple-system,&quot;SF Pro Display&quot;,&quot;SF Pro Text&quot;,Helvetica,sans-serif;text-anchor:middle;" transform="matrix(1 0 0 1 2636.69 322)">Heavy</text>
  <text style="stroke:none;fill:black;font-family:-apple-system,&quot;SF Pro Display&quot;,&quot;SF Pro Text&quot;,Helvetica,sans-serif;text-anchor:middle;" transform="matrix(1 0 0 1 2933.4 322)">Black</text>
  <line id="" style="fill:none;stroke:black;opacity:1;stroke-width:0.5;" x1="263" x2="3036" y1="1903" y2="1903"/>
  <g id="" transform="matrix(1 0 0 1 263 1933)">
   <path d="M 9.24805 0.830078 C 13.5547 0.830078 17.1387 -2.74414 17.1387 -7.05078 C 17.1387 -11.3574 13.5449 -14.9316 9.23828 -14.9316 C 4.94141 -14.9316 1.36719 -11.3574 1.36719 -7.05078 C 1.36719 -2.74414 4.95117 0.830078 9.24805 0.830078 Z M 9.24805 -0.654297 C 5.70312 -0.654297 2.87109 -3.49609 2.87109 -7.05078 C 2.87109 -10.6055 5.69336 -13.4473 9.23828 -13.4473 C 12.793 -13.4473 15.6348 -10.6055 15.6445 -7.05078 C 15.6543 -3.49609 12.8027 -0.654297 9.24805 -0.654297 Z M 9.22852 -3.42773 C 9.69727 -3.42773 9.9707 -3.74023 9.9707 -4.25781 L 9.9707 -6.31836 L 12.1973 -6.31836 C 12.6953 -6.31836 13.0371 -6.57227 13.0371 -7.04102 C 13.0371 -7.51953 12.7148 -7.7832 12.1973 -7.7832 L 9.9707 -7.7832 L 9.9707 -10.0098 C 9.9707 -10.5273 9.69727 -10.8496 9.22852 -10.8496 C 8.75977 -10.8496 8.50586 -10.5078 8.50586 -10.0098 L 8.50586 -7.7832 L 6.29883 -7.7832 C 5.78125 -7.7832 5.44922 -7.51953 5.44922 -7.04102 C 5.44922 -6.57227 5.80078 -6.31836 6.29883 -6.31836 L 8.50586 -6.31836 L 8.50586 -4.25781 C 8.50586 -3.75977 8.75977 -3.42773 9.22852 -3.42773 Z"/>
  </g>
  <g id="" transform="matrix(1 0 0 1 281.506 1933)">
   <path d="M 11.709 2.91016 C 17.1582 2.91016 21.6699 -1.60156 21.6699 -7.05078 C 21.6699 -12.4902 17.1484 -17.0117 11.6992 -17.0117 C 6.25977 -17.0117 1.74805 -12.4902 1.74805 -7.05078 C 1.74805 -1.60156 6.26953 2.91016 11.709 2.91016 Z M 11.709 1.25 C 7.09961 1.25 3.41797 -2.44141 3.41797 -7.05078 C 3.41797 -11.6504 7.08984 -15.3516 11.6992 -15.3516 C 16.3086 -15.3516 20 -11.6504 20.0098 -7.05078 C 20.0195 -2.44141 16.3184 1.25 11.709 1.25 Z M 11.6895 -2.41211 C 12.207 -2.41211 12.5195 -2.77344 12.5195 -3.33984 L 12.5195 -6.23047 L 15.5762 -6.23047 C 16.123 -6.23047 16.5039 -6.51367 16.5039 -7.03125 C 16.5039 -7.55859 16.1426 -7.86133 15.5762 -7.86133 L 12.5195 -7.86133 L 12.5195 -10.9277 C 12.5195 -11.5039 12.207 -11.8555 11.6895 -11.8555 C 11.1719 -11.8555 10.8789 -11.4844 10.8789 -10.9277 L 10.8789 -7.86133 L 7.83203 -7.86133 C 7.26562 -7.86133 6.89453 -7.55859 6.89453 -7.03125 C 6.89453 -6.51367 7.28516 -6.23047 7.83203 -6.23047 L 10.8789 -6.23047 L 10.8789 -3.33984 C 10.8789 -2.79297 11.1719 -2.41211 11.6895 -2.41211 Z"/>
  </g>
  <g id="" transform="matrix(1 0 0 1 304.924 1933)">
   <path d="M 14.9707 5.67383 C 21.9336 5.67383 27.6953 -0.078125 27.6953 -7.04102 C 27.6953 -14.0039 21.9238 -19.7559 14.9609 -19.7559 C 8.00781 -19.7559 2.25586 -14.0039 2.25586 -7.04102 C 2.25586 -0.078125 8.01758 5.67383 14.9707 5.67383 Z M 14.9707 3.85742 C 8.93555 3.85742 4.08203 -1.00586 4.08203 -7.04102 C 4.08203 -13.0762 8.92578 -17.9395 14.9609 -17.9395 C 21.0059 -17.9395 25.8594 -13.0762 25.8691 -7.04102 C 25.8789 -1.00586 21.0156 3.85742 14.9707 3.85742 Z M 14.9512 -1.06445 C 15.5176 -1.06445 15.8691 -1.45508 15.8691 -2.06055 L 15.8691 -6.13281 L 20.1074 -6.13281 C 20.6934 -6.13281 21.1133 -6.46484 21.1133 -7.02148 C 21.1133 -7.59766 20.7227 -7.93945 20.1074 -7.93945 L 15.8691 -7.93945 L 15.8691 -12.1875 C 15.8691 -12.8027 15.5176 -13.1934 14.9512 -13.1934 C 14.3848 -13.1934 14.0625 -12.7832 14.0625 -12.1875 L 14.0625 -7.93945 L 9.83398 -7.93945 C 9.21875 -7.93945 8.80859 -7.59766 8.80859 -7.02148 C 8.80859 -6.46484 9.23828 -6.13281 9.83398 -6.13281 L 14.0625 -6.13281 L 14.0625 -2.06055 C 14.0625 -1.47461 14.3848 -1.06445 14.9512 -1.06445 Z"/>
  </g>
  <text style="stroke:none;fill:black;font-family:-apple-system,&quot;SF Pro Display&quot;,&quot;SF Pro Text&quot;,Helvetica,sans-serif;font-weight:bold;" transform="matrix(1 0 0 1 263 1953)">Design Variations</text>
  <text style="stroke:none;fill:black;font-family:-apple-system,&quot;SF Pro Display&quot;,&quot;SF Pro Text&quot;,Helvetica,sans-serif;" transform="matrix(1 0 0 1 263 1971)">Symbols are supported in up to nine weights and three scales.</text>
  <text style="stroke:none;fill:black;font-family:-apple-system,&quot;SF Pro Display&quot;,&quot;SF Pro Text&quot;,Helvetica,sans-serif;" transform="matrix(1 0 0 1 263 1989)">For optimal layout with text and other symbols, vertically align</text>
  <text style="stroke:none;fill:black;font-family:-apple-system,&quot;SF Pro Display&quot;,&quot;SF Pro Text&quot;,Helvetica,sans-serif;" transform="matrix(1 0 0 1 263 2007)">symbols with the adjacent text.</text>
  <rect height="14" id="" style="fill:#00AEEF;stroke:none;opacity:0.4;" width="3" x="776" y="1919"/>
  <g id="" transform="matrix(1 0 0 1 779 1933)">
   <path d="M 10.5273 0 L 12.373 0 L 7.17773 -14.0918 L 5.43945 -14.0918 L 0.244141 0 L 2.08984 0 L 3.50586 -4.0332 L 9.11133 -4.0332 Z M 6.2793 -11.9531 L 6.33789 -11.9531 L 8.59375 -5.52734 L 4.02344 -5.52734 Z"/>
  </g>
  <rect height="14" id="" style="fill:#00AEEF;stroke:none;opacity:0.4;" width="3" x="791.617" y="1919"/>
  <text style="stroke:none;fill:black;font-family:-apple-system,&quot;SF Pro Display&quot;,&quot;SF Pro Text&quot;,Helvetica,sans-serif;font-weight:bold;" transform="matrix(1 0 0 1 776 1953)">Margins</text>
  <text style="stroke:none;fill:black;font-family:-apple-system,&quot;SF Pro Display&quot;,&quot;SF Pro Text&quot;,Helvetica,sans-serif;" transform="matrix(1 0 0 1 776 1971)">Leading and trailing margins on the left and right side of each symbol</text>
  <text style="stroke:none;fill:black;font-family:-apple-system,&quot;SF Pro Display&quot;,&quot;SF Pro Text&quot;,Helvetica,sans-serif;" transform="matrix(1 0 0 1 776 1989)">can be adjusted by modifying the width of the blue rectangles.</text>
  <text style="stroke:none;fill:black;font-family:-apple-system,&quot;SF Pro Display&quot;,&quot;SF Pro Text&quot;,Helvetica,sans-serif;" transform="matrix(1 0 0 1 776 2007)">Modifications are automatically applied proportionally to all</text>
  <text style="stroke:none;fill:black;font-family:-apple-system,&quot;SF Pro Display&quot;,&quot;SF Pro Text&quot;,Helvetica,sans-serif;" transform="matrix(1 0 0 1 776 2025)">scales and weights.</text>
  <g id="" transform="matrix(1 0 0 1 1289 1933)">
   <path d="M 2.83203 3.11523 L 4.375 4.6582 C 5.22461 5.48828 6.19141 5.41992 7.06055 4.46289 L 17.2754 -6.66016 C 17.7051 -6.36719 18.0957 -6.37695 18.5645 -6.47461 L 19.6094 -6.68945 L 20.3027 -5.99609 L 20.2539 -5.47852 C 20.1855 -4.95117 20.3516 -4.53125 20.8496 -4.0332 L 21.6602 -3.22266 C 22.168 -2.71484 22.8223 -2.68555 23.3008 -3.16406 L 26.5527 -6.41602 C 27.0312 -6.89453 27.0117 -7.54883 26.5039 -8.05664 L 25.6836 -8.87695 C 25.1855 -9.375 24.7754 -9.55078 24.2383 -9.47266 L 23.7109 -9.41406 L 23.0566 -10.0781 L 23.3398 -11.2207 C 23.4863 -11.7871 23.3398 -12.2559 22.7148 -12.8613 L 20.3027 -15.2539 C 16.7578 -18.7793 12.2266 -18.6719 9.11133 -15.5371 C 8.69141 -15.1074 8.64258 -14.5215 8.91602 -14.0918 C 9.15039 -13.7207 9.62891 -13.4961 10.2734 -13.6621 C 11.7871 -14.043 13.3008 -13.9258 14.7852 -12.9199 L 14.1602 -11.3379 C 13.9258 -10.752 13.9453 -10.2734 14.1797 -9.83398 L 3.01758 0.439453 C 2.08008 1.30859 1.97266 2.25586 2.83203 3.11523 Z M 10.6738 -15.1465 C 13.3398 -17.1387 16.6504 -16.8262 19.0527 -14.4141 L 21.6797 -11.8066 C 21.9141 -11.5723 21.9434 -11.3867 21.8848 -11.0938 L 21.5039 -9.53125 L 23.0762 -7.95898 L 24.043 -8.04688 C 24.3262 -8.07617 24.4141 -8.05664 24.6387 -7.83203 L 25.2637 -7.20703 L 22.5098 -4.46289 L 21.8848 -5.07812 C 21.6602 -5.30273 21.6406 -5.40039 21.6699 -5.68359 L 21.7578 -6.64062 L 20.1953 -8.20312 L 18.5742 -7.89062 C 18.291 -7.83203 18.1445 -7.83203 17.9102 -8.07617 L 15.7324 -10.2539 C 15.5078 -10.4883 15.4785 -10.625 15.6055 -10.9473 L 16.5527 -13.2227 C 14.9512 -14.7559 12.8418 -15.6055 10.8008 -14.9512 C 10.7129 -14.9219 10.6445 -14.9414 10.6152 -14.9805 C 10.5859 -15.0293 10.5859 -15.0781 10.6738 -15.1465 Z M 4.10156 2.41211 C 3.61328 1.91406 3.78906 1.61133 4.12109 1.30859 L 15.0781 -8.80859 L 16.3086 -7.57812 L 6.15234 3.34961 C 5.84961 3.68164 5.46875 3.7793 5.06836 3.37891 Z"/>
  </g>
  <text style="stroke:none;fill:black;font-family:-apple-system,&quot;SF Pro Display&quot;,&quot;SF Pro Text&quot;,Helvetica,sans-serif;font-weight:bold;" transform="matrix(1 0 0 1 1289 1953)">Exporting</text>
  <text style="stroke:none;fill:black;font-family:-apple-system,&quot;SF Pro Display&quot;,&quot;SF Pro Text&quot;,Helvetica,sans-serif;" transform="matrix(1 0 0 1 1289 1971)">Symbols should be outlined when exporting to ensure the</text>
  <text style="stroke:none;fill:black;font-family:-apple-system,&quot;SF Pro Display&quot;,&quot;SF Pro Text&quot;,Helvetica,sans-serif;" transform="matrix(1 0 0 1 1289 1989)">design is preserved when submitting to Xcode.</text>
  <text id="template-version" style="stroke:none;fill:black;font-family:-apple-system,&quot;SF Pro Display&quot;,&quot;SF Pro Text&quot;,Helvetica,sans-serif;text-anchor:end;" transform="matrix(1 0 0 1 3036 1933)">Template v.1.0</text>
  <text style="stroke:none;fill:black;font-family:-apple-system,&quot;SF Pro Display&quot;,&quot;SF Pro Text&quot;,Helvetica,sans-serif;text-anchor:end;" transform="matrix(1 0 0 1 3036 1951)">Generated from exclamationmark.triangle</text>
  <text style="stroke:none;fill:black;font-family:-apple-system,&quot;SF Pro Display&quot;,&quot;SF Pro Text&quot;,Helvetica,sans-serif;text-anchor:end;" transform="matrix(1 0 0 1 3036 1969)">Typeset at 100 points</text>
  <text style="stroke:none;fill:black;font-family:-apple-system,&quot;SF Pro Display&quot;,&quot;SF Pro Text&quot;,Helvetica,sans-serif;" transform="matrix(1 0 0 1 263 726)">Small</text>
  <text style="stroke:none;fill:black;font-family:-apple-system,&quot;SF Pro Display&quot;,&quot;SF Pro Text&quot;,Helvetica,sans-serif;" transform="matrix(1 0 0 1 263 1156)">Medium</text>
  <text style="stroke:none;fill:black;font-family:-apple-system,&quot;SF Pro Display&quot;,&quot;SF Pro Text&quot;,Helvetica,sans-serif;" transform="matrix(1 0 0 1 263 1586)">Large</text>
 </g>
 <g id="Guides">
  <g id="H-reference" style="fill:#27AAE1;stroke:none;" transform="matrix(1 0 0 1 339 696)">
   <path d="M 54.9316 0 L 57.666 0 L 30.5664 -70.459 L 28.0762 -70.459 L 0.976562 0 L 3.66211 0 L 12.9395 -24.4629 L 45.7031 -24.4629 Z M 29.1992 -67.0898 L 29.4434 -67.0898 L 44.8242 -26.709 L 13.8184 -26.709 Z"/>
  </g>
  <line id="Baseline-S" style="fill:none;stroke:#27AAE1;opacity:1;stroke-width:0.577;" x1="263" x2="3036" y1="696" y2="696"/>
  <line id="Capline-S" style="fill:none;stroke:#27AAE1;opacity:1;stroke-width:0.577;" x1="263" x2="3036" y1="625.541" y2="625.541"/>
  <g id="H-reference" style="fill:#27AAE1;stroke:none;" transform="matrix(1 0 0 1 339 1126)">
   <path d="M 54.9316 0 L 57.666 0 L 30.5664 -70.459 L 28.0762 -70.459 L 0.976562 0 L 3.66211 0 L 12.9395 -24.4629 L 45.7031 -24.4629 Z M 29.1992 -67.0898 L 29.4434 -67.0898 L 44.8242 -26.709 L 13.8184 -26.709 Z"/>
  </g>
  <line id="Baseline-M" style="fill:none;stroke:#27AAE1;opacity:1;stroke-width:0.577;" x1="263" x2="3036" y1="1126" y2="1126"/>
  <line id="Capline-M" style="fill:none;stroke:#27AAE1;opacity:1;stroke-width:0.577;" x1="263" x2="3036" y1="1055.54" y2="1055.54"/>
  <g id="H-reference" style="fill:#27AAE1;stroke:none;" transform="matrix(1 0 0 1 339 1556)">
   <path d="M 54.9316 0 L 57.666 0 L 30.5664 -70.459 L 28.0762 -70.459 L 0.976562 0 L 3.66211 0 L 12.9395 -24.4629 L 45.7031 -24.4629 Z M 29.1992 -67.0898 L 29.4434 -67.0898 L 44.8242 -26.709 L 13.8184 -26.709 Z"/>
  </g>
  <line id="Baseline-L" style="fill:none;stroke:#27AAE1;opacity:1;stroke-width:0.577;" x1="263" x2="3036" y1="1556" y2="1556"/>
  <line id="Capline-L" style="fill:none;stroke:#27AAE1;opacity:1;stroke-width:0.577;" x1="263" x2="3036" y1="1485.54" y2="1485.54"/>
  <rect height="119.336" id="left-margin" style="fill:#00AEEF;stroke:none;opacity:0.4;" width="9.96094" x="1388.83" y="1030.79"/>
  <rect height="119.336" id="right-margin" style="fill:#00AEEF;stroke:none;opacity:0.4;" width="9.96094" x="1500.89" y="1030.79"/>
 </g>
 <g id="Symbols">
  <g id="Black-L" transform="matrix(1 0 0 1 2851.95 1556)">
   <path d="M 33.3496 28.2715 L 129.59 28.2715 C 141.699 28.2715 150 18.7012 150 7.76367 C 150 4.3457 149.17 0.878906 147.363 -2.34375 L 99.1699 -86.5234 C 95.166 -93.457 88.4277 -96.8262 81.4941 -96.8262 C 74.5117 -96.8262 67.627 -93.3105 63.7695 -86.5234 L 15.5762 -2.29492 C 13.7695 0.927734 12.8906 4.3457 12.8906 7.76367 C 12.8906 18.7012 21.1914 28.2715 33.3496 28.2715 Z M 37.8906 9.32617 C 35.5469 9.32617 33.9844 7.37305 33.9844 5.22461 C 33.9844 4.6875 34.1309 3.80859 34.4238 3.17383 L 78.125 -73.877 C 78.8086 -75.0977 80.2246 -75.5859 81.4941 -75.5859 C 82.7637 -75.5859 84.082 -75 84.7656 -73.8281 L 128.516 3.32031 C 128.809 3.95508 128.955 4.73633 128.955 5.22461 C 128.955 7.37305 127.393 9.32617 125.049 9.32617 Z M 81.0547 -18.7988 C 85.8887 -18.7988 88.7207 -21.4355 88.9648 -26.4648 L 90.0879 -48.0469 C 90.2832 -53.3203 86.6211 -56.9336 81.0059 -56.9336 C 75.3418 -56.9336 71.7285 -53.3691 71.9238 -48.0957 L 72.998 -26.3184 C 73.2422 -21.4355 76.123 -18.7988 81.0547 -18.7988 Z M 81.0547 3.61328 C 86.4746 3.61328 90.4785 0.439453 90.4785 -4.6875 C 90.4785 -9.76562 86.5234 -12.9883 81.0547 -12.9883 C 75.6348 -12.9883 71.5332 -9.81445 71.5332 -4.6875 C 71.5332 0.439453 75.6348 3.61328 81.0547 3.61328 Z"/>
  </g>
  <g id="Heavy-L" transform="matrix(1 0 0 1 2555.98 1556)">
   <path d="M 32.4707 27.2461 L 129.004 27.2461 C 140.625 27.2461 148.535 18.1641 148.535 7.61719 C 148.535 4.39453 147.754 1.02539 145.996 -2.05078 L 97.6562 -86.4746 C 93.8477 -93.0664 87.4023 -96.3379 80.7617 -96.3379 C 74.1211 -96.3379 67.4805 -92.9688 63.8184 -86.4746 L 15.4297 -2.00195 C 13.7207 1.07422 12.8906 4.39453 12.8906 7.61719 C 12.8906 18.1641 20.8008 27.2461 32.4707 27.2461 Z M 35.9375 10.7422 C 33.0566 10.7422 31.1035 8.34961 31.1035 5.71289 C 31.1035 4.98047 31.2012 4.00391 31.6406 3.17383 L 76.5137 -75.8789 C 77.3926 -77.3926 79.1016 -78.0762 80.7617 -78.0762 C 82.373 -78.0762 83.9844 -77.3926 84.9121 -75.8301 L 129.785 3.27148 C 130.225 4.10156 130.42 5.0293 130.42 5.71289 C 130.42 8.34961 128.418 10.7422 125.488 10.7422 Z M 80.4199 -18.6523 C 84.7168 -18.6523 87.2559 -21.0449 87.4512 -25.5371 L 88.4766 -49.9512 C 88.6719 -54.6875 85.3516 -57.9102 80.3711 -57.9102 C 75.3418 -57.9102 72.0703 -54.6875 72.2656 -50 L 73.2422 -25.4395 C 73.4375 -21.0449 76.0254 -18.6523 80.4199 -18.6523 Z M 80.4199 3.125 C 85.3516 3.125 89.1113 0.0976562 89.1113 -4.58984 C 89.1113 -9.27734 85.4004 -12.3535 80.4199 -12.3535 C 75.4883 -12.3535 71.6797 -9.32617 71.6797 -4.58984 C 71.6797 0.0976562 75.4883 3.125 80.4199 3.125 Z"/>
  </g>
  <g id="Bold-L" transform="matrix(1 0 0 1 2260.09 1556)">
   <path d="M 31.4941 26.123 L 128.32 26.123 C 139.502 26.123 146.875 17.5781 146.875 7.4707 C 146.875 4.39453 146.143 1.2207 144.434 -1.70898 L 95.9473 -86.4746 C 92.3828 -92.6758 86.2305 -95.8496 79.9316 -95.8496 C 73.6328 -95.8496 67.334 -92.627 63.8672 -86.4746 L 15.332 -1.66016 C 13.6719 1.26953 12.8906 4.39453 12.8906 7.4707 C 12.8906 17.5781 20.3125 26.123 31.4941 26.123 Z M 33.7891 12.4023 C 30.2246 12.4023 27.832 9.47266 27.832 6.20117 C 27.832 5.32227 27.9785 4.15039 28.5156 3.125 L 74.707 -78.0762 C 75.8301 -80.0293 77.9297 -80.9082 79.9316 -80.9082 C 81.9336 -80.9082 83.9355 -80.0293 85.0098 -78.0273 L 131.25 3.22266 C 131.787 4.19922 132.031 5.32227 132.031 6.20117 C 132.031 9.47266 129.541 12.4023 126.025 12.4023 Z M 79.7363 -18.5059 C 83.4473 -18.5059 85.5957 -20.6055 85.791 -24.5117 L 86.7188 -52.0996 C 86.8652 -56.1523 83.9355 -58.9844 79.6387 -58.9844 C 75.3418 -58.9844 72.5098 -56.2012 72.6074 -52.1484 L 73.5352 -24.4629 C 73.6816 -20.6055 75.8789 -18.5059 79.7363 -18.5059 Z M 79.7363 2.63672 C 84.082 2.63672 87.5488 -0.244141 87.5488 -4.49219 C 87.5488 -8.74023 84.1309 -11.6699 79.7363 -11.6699 C 75.293 -11.6699 71.8262 -8.74023 71.8262 -4.49219 C 71.8262 -0.292969 75.3418 2.63672 79.7363 2.63672 Z"/>
  </g>
  <g id="Semibold-L" transform="matrix(1 0 0 1 1963.95 1556)">
   <path d="M 30.8105 25.3418 L 127.881 25.3418 C 138.672 25.3418 145.752 17.1387 145.752 7.37305 C 145.752 4.39453 145.02 1.36719 143.408 -1.46484 L 94.7754 -86.4258 C 91.3574 -92.3828 85.4004 -95.459 79.3457 -95.459 C 73.291 -95.459 67.2852 -92.3828 63.8672 -86.4258 L 15.2344 -1.41602 C 13.6719 1.36719 12.8906 4.39453 12.8906 7.37305 C 12.8906 17.1387 20.0195 25.3418 30.8105 25.3418 Z M 32.3242 13.5254 C 28.2715 13.5254 25.5859 10.2051 25.5859 6.54297 C 25.5859 5.51758 25.7324 4.29688 26.3672 3.07617 L 73.4863 -79.6387 C 74.7559 -81.8359 77.0508 -82.8613 79.3457 -82.8613 C 81.6406 -82.8613 83.8379 -81.8359 85.1074 -79.5898 L 132.227 3.17383 C 132.861 4.29688 133.105 5.51758 133.105 6.54297 C 133.105 10.2051 130.371 13.5254 126.367 13.5254 Z M 79.1992 -18.4082 C 82.5195 -18.4082 84.4727 -20.2637 84.6191 -23.8281 L 85.498 -53.5645 C 85.5957 -57.1777 82.959 -59.7656 79.1504 -59.7656 C 75.3418 -59.7656 72.7539 -57.2266 72.8516 -53.6133 L 73.7305 -23.7793 C 73.8281 -20.3125 75.8301 -18.4082 79.1992 -18.4082 Z M 79.1992 2.29492 C 83.2031 2.29492 86.4258 -0.537109 86.4258 -4.44336 C 86.4258 -8.34961 83.252 -11.1816 79.1992 -11.1816 C 75.1953 -11.1816 71.9727 -8.34961 71.9727 -4.44336 C 71.9727 -0.585938 75.1953 2.29492 79.1992 2.29492 Z"/>
  </g>
  <g id="Medium-L" transform="matrix(1 0 0 1 1667.65 1556)">
   <path d="M 30.3223 24.707 L 127.539 24.707 C 138.086 24.707 144.922 16.8457 144.922 7.27539 C 144.922 4.39453 144.141 1.46484 142.578 -1.26953 L 93.8965 -86.4258 C 90.5762 -92.1875 84.8145 -95.2148 78.9062 -95.2148 C 73.0469 -95.2148 67.1875 -92.1875 63.916 -86.4258 L 15.1855 -1.2207 C 13.623 1.46484 12.8906 4.39453 12.8906 7.27539 C 12.8906 16.8457 19.7754 24.707 30.3223 24.707 Z M 31.2012 14.3555 C 26.8066 14.3555 23.877 10.791 23.877 6.83594 C 23.877 5.71289 24.0723 4.3457 24.707 3.07617 L 72.5586 -80.7617 C 73.9258 -83.2031 76.416 -84.3262 78.9062 -84.3262 C 81.3965 -84.3262 83.7891 -83.2031 85.2051 -80.7617 L 133.008 3.125 C 133.691 4.3457 133.984 5.71289 133.984 6.83594 C 133.984 10.791 130.957 14.3555 126.611 14.3555 Z M 78.8574 -18.3105 C 81.8359 -18.3105 83.6426 -20.0684 83.6914 -23.291 L 84.5703 -54.6875 C 84.6191 -57.959 82.1777 -60.3027 78.8086 -60.3027 C 75.3418 -60.3027 72.998 -58.0078 73.0469 -54.7363 L 73.877 -23.291 C 73.9746 -20.1172 75.7324 -18.3105 78.8574 -18.3105 Z M 78.8574 2.00195 C 82.5684 2.00195 85.6445 -0.732422 85.6445 -4.39453 C 85.6445 -8.05664 82.6172 -10.791 78.8574 -10.791 C 75.0977 -10.791 72.0703 -8.00781 72.0703 -4.39453 C 72.0703 -0.78125 75.1465 2.00195 78.8574 2.00195 Z"/>
  </g>
  <g id="Regular-L" transform="matrix(1 0 0 1 1371.5 1556)">
   <path d="M 29.6387 23.9258 L 127.1 23.9258 C 137.256 23.9258 143.799 16.4551 143.799 7.17773 C 143.799 4.44336 143.066 1.5625 141.553 -1.07422 L 92.7246 -86.377 C 89.5996 -91.9434 84.0332 -94.8242 78.3691 -94.8242 C 72.7051 -94.8242 67.0898 -91.9434 63.9648 -86.377 L 15.0879 -0.976562 C 13.623 1.61133 12.8906 4.44336 12.8906 7.17773 C 12.8906 16.4551 19.4336 23.9258 29.6387 23.9258 Z M 29.6875 15.4785 C 24.8535 15.4785 21.6309 11.5234 21.6309 7.17773 C 21.6309 5.95703 21.875 4.49219 22.5586 3.02734 L 71.3379 -82.2754 C 72.8516 -84.9609 75.6348 -86.2305 78.3691 -86.2305 C 81.1035 -86.2305 83.7402 -85.0098 85.3027 -82.2754 L 133.984 3.07617 C 134.766 4.44336 135.059 5.9082 135.059 7.17773 C 135.059 11.5234 131.738 15.4785 126.953 15.4785 Z M 78.3691 -18.2129 C 80.957 -18.2129 82.5195 -19.7266 82.5684 -22.6074 L 83.3496 -56.1523 C 83.3984 -58.9844 81.25 -61.084 78.3203 -61.084 C 75.3418 -61.084 73.2422 -59.0332 73.291 -56.2012 L 74.0723 -22.6074 C 74.1211 -19.7754 75.6348 -18.2129 78.3691 -18.2129 Z M 78.3691 1.66016 C 81.6895 1.66016 84.5703 -0.976562 84.5703 -4.29688 C 84.5703 -7.66602 81.7383 -10.3027 78.3691 -10.3027 C 74.9512 -10.3027 72.168 -7.61719 72.168 -4.29688 C 72.168 -1.02539 75 1.66016 78.3691 1.66016 Z"/>
  </g>
  <g id="Light-L" transform="matrix(1 0 0 1 1075.37 1556)">
   <path d="M 28.7109 23.4863 L 126.855 23.4863 C 136.377 23.4863 142.627 16.2109 142.627 7.61719 C 142.627 4.98047 141.992 2.29492 140.527 -0.244141 L 91.4062 -86.5234 C 88.4277 -91.748 83.1543 -94.4824 77.7832 -94.4824 C 72.4609 -94.4824 67.0898 -91.748 64.1113 -86.5234 L 14.9414 -0.146484 C 13.5254 2.29492 12.8906 4.98047 12.8906 7.61719 C 12.8906 16.2109 19.1895 23.4863 28.7109 23.4863 Z M 28.8086 16.9434 C 23.3398 16.9434 19.6777 12.5 19.6777 7.61719 C 19.6777 6.20117 19.9219 4.58984 20.7031 2.88086 L 69.8242 -83.3984 C 71.5332 -86.4258 74.6582 -87.8906 77.7832 -87.8906 C 80.9082 -87.8906 83.8867 -86.4746 85.6445 -83.3984 L 134.668 2.92969 C 135.498 4.49219 135.889 6.15234 135.889 7.61719 C 135.889 12.5 132.129 16.9434 126.758 16.9434 Z M 77.7832 -18.1641 C 79.834 -18.1641 81.1035 -19.5312 81.1523 -21.875 L 81.7871 -55.7129 C 81.8359 -58.0566 80.127 -59.7168 77.7344 -59.7168 C 75.3418 -59.7168 73.7305 -58.0566 73.7305 -55.7617 L 74.3652 -21.875 C 74.4141 -19.5312 75.6836 -18.1641 77.7832 -18.1641 Z M 77.7832 0.878906 C 80.7129 0.878906 83.1543 -1.51367 83.1543 -4.39453 C 83.1543 -7.27539 80.7617 -9.61914 77.7832 -9.61914 C 74.8047 -9.61914 72.4121 -7.27539 72.4121 -4.39453 C 72.4121 -1.5625 74.8535 0.878906 77.7832 0.878906 Z"/>
  </g>
  <g id="Thin-L" transform="matrix(1 0 0 1 779.445 1556)">
   <path d="M 27.5391 22.8516 L 126.514 22.8516 C 135.107 22.8516 141.064 15.8691 141.064 8.1543 C 141.064 5.71289 140.576 3.22266 139.16 0.878906 L 89.5996 -86.6699 C 86.8652 -91.5527 81.9824 -94.043 77.002 -94.043 C 72.168 -94.043 67.0898 -91.5527 64.3555 -86.6699 L 14.6973 1.02539 C 13.4766 3.22266 12.8906 5.71289 12.8906 8.1543 C 12.8906 15.8691 18.8965 22.8516 27.5391 22.8516 Z M 27.5879 18.8965 C 21.2891 18.8965 17.041 13.8184 17.041 8.1543 C 17.041 6.54297 17.334 4.73633 18.2617 2.73438 L 67.8711 -84.8145 C 69.8242 -88.3301 73.3887 -90.0391 77.002 -90.0391 C 80.6641 -90.0391 84.082 -88.3789 86.1328 -84.8145 L 135.547 2.73438 C 136.523 4.54102 137.012 6.44531 137.012 8.1543 C 137.012 13.8184 132.666 18.8965 126.465 18.8965 Z M 77.002 -18.1641 C 78.3691 -18.1641 79.248 -19.1895 79.248 -20.8008 L 79.6875 -55.1758 C 79.7363 -56.8359 78.6621 -57.959 77.002 -57.959 C 75.3906 -57.959 74.3164 -56.8359 74.3164 -55.2246 L 74.8047 -20.8008 C 74.8047 -19.1895 75.6836 -18.1641 77.002 -18.1641 Z M 77.002 -0.146484 C 79.4434 -0.146484 81.3477 -2.19727 81.3477 -4.44336 C 81.3477 -6.78711 79.4434 -8.74023 77.002 -8.74023 C 74.6094 -8.74023 72.7051 -6.78711 72.7051 -4.44336 C 72.7051 -2.19727 74.6094 -0.146484 77.002 -0.146484 Z"/>
  </g>
  <g id="Ultralight-L" transform="matrix(1 0 0 1 483.124 1556)">
   <path d="M 26.9043 22.5586 L 126.367 22.5586 C 134.521 22.5586 140.283 15.7227 140.283 8.44727 C 140.283 6.10352 139.844 3.71094 138.477 1.41602 L 88.6719 -86.7676 C 86.084 -91.4062 81.3477 -93.7988 76.6602 -93.7988 C 72.0215 -93.7988 67.0898 -91.4062 64.502 -86.7676 L 14.5996 1.61133 C 13.4277 3.71094 12.8906 6.10352 12.8906 8.44727 C 12.8906 15.7227 18.75 22.5586 26.9043 22.5586 Z M 27.002 19.9219 C 20.2637 19.9219 15.7227 14.502 15.7227 8.44727 C 15.7227 6.68945 16.0156 4.83398 17.041 2.63672 L 66.8457 -85.5469 C 68.8965 -89.3066 72.7539 -91.1133 76.6602 -91.1133 C 80.5664 -91.1133 84.1797 -89.4043 86.3281 -85.5469 L 135.986 2.63672 C 137.061 4.54102 137.549 6.64062 137.549 8.44727 C 137.549 14.502 132.91 19.9219 126.27 19.9219 Z M 76.6602 -18.1152 C 77.5879 -18.1152 78.2715 -19.043 78.2715 -20.3125 L 78.6621 -54.9316 C 78.6133 -56.2012 77.9297 -57.0312 76.6602 -57.0312 C 75.3906 -57.0312 74.6582 -56.2012 74.6582 -54.9316 L 75 -20.3125 C 75 -19.043 75.6836 -18.1152 76.6602 -18.1152 Z M 76.6602 -0.683594 C 78.7598 -0.683594 80.3711 -2.53906 80.3711 -4.49219 C 80.3711 -6.49414 78.7598 -8.25195 76.6602 -8.25195 C 74.5117 -8.25195 72.9004 -6.54297 72.9004 -4.49219 C 72.9004 -2.53906 74.5117 -0.683594 76.6602 -0.683594 Z"/>
  </g>
  <g id="Black-M" transform="matrix(1 0 0 1 2869.63 1126)">
   <path d="M 26.5137 15.1367 L 101.074 15.1367 C 110.693 15.1367 117.578 7.17773 117.578 -1.51367 C 117.578 -4.24805 116.943 -7.08008 115.479 -9.7168 L 78.125 -75.0977 C 74.8535 -80.7129 69.4336 -83.3984 63.8184 -83.3984 C 58.1543 -83.3984 52.5391 -80.6152 49.4141 -75.0977 L 12.0605 -9.61914 C 10.6445 -7.08008 9.96094 -4.24805 9.96094 -1.51367 C 9.96094 7.17773 16.8457 15.1367 26.5137 15.1367 Z M 31.4453 -1.9043 C 30.127 -1.9043 29.1992 -2.97852 29.1992 -4.24805 C 29.1992 -4.54102 29.248 -5.12695 29.4434 -5.46875 L 61.8652 -63.0859 C 62.207 -63.7207 63.0859 -63.9648 63.8184 -63.9648 C 64.5508 -63.9648 65.332 -63.6719 65.6738 -62.9883 L 98.1445 -5.32227 C 98.3398 -4.98047 98.3887 -4.49219 98.3887 -4.24805 C 98.3887 -2.97852 97.5098 -1.9043 96.1426 -1.9043 Z M 63.3789 -22.7051 C 67.4805 -22.7051 69.9707 -24.9512 70.2148 -29.1992 L 71.0938 -42.3828 C 71.2891 -46.9727 68.2129 -50 63.2812 -50 C 58.3984 -50 55.3223 -46.9727 55.5176 -42.3828 L 56.3965 -29.1016 C 56.6406 -24.9512 59.1309 -22.7051 63.3789 -22.7051 Z M 63.3789 -4.93164 C 68.0176 -4.93164 71.2402 -7.37305 71.2402 -11.7188 C 71.2402 -15.9668 68.0176 -18.457 63.3789 -18.457 C 58.6914 -18.457 55.3223 -16.0645 55.3223 -11.7188 C 55.3223 -7.37305 58.6914 -4.93164 63.3789 -4.93164 Z"/>
  </g>
  <g id="Heavy-M" transform="matrix(1 0 0 1 2573.58 1126)">
   <path d="M 25.8301 14.1113 L 100.488 14.1113 C 109.814 14.1113 116.26 6.64062 116.26 -1.75781 C 116.26 -4.39453 115.674 -7.08008 114.209 -9.57031 L 76.8066 -75.0488 C 73.7305 -80.3711 68.5059 -83.0078 63.1348 -83.0078 C 57.7637 -83.0078 52.3926 -80.2734 49.4141 -75.0488 L 12.0117 -9.52148 C 10.6445 -7.08008 9.96094 -4.39453 9.96094 -1.75781 C 9.96094 6.64062 16.4551 14.1113 25.8301 14.1113 Z M 29.5898 -0.683594 C 27.7344 -0.683594 26.5137 -2.19727 26.5137 -3.85742 C 26.5137 -4.29688 26.6113 -4.98047 26.8555 -5.46875 L 60.498 -64.9414 C 61.0352 -65.918 62.1582 -66.3086 63.1348 -66.3086 C 64.1602 -66.3086 65.1855 -65.8691 65.7227 -64.8926 L 99.4141 -5.37109 C 99.6582 -4.88281 99.7559 -4.24805 99.7559 -3.85742 C 99.7559 -2.19727 98.5352 -0.683594 96.7285 -0.683594 Z M 62.793 -22.5098 C 66.5039 -22.5098 68.7012 -24.5605 68.9453 -28.418 L 69.7754 -44.5801 C 69.9219 -48.6816 67.0898 -51.416 62.7441 -51.416 C 58.3984 -51.416 55.5664 -48.6816 55.7617 -44.5801 L 56.5918 -28.3203 C 56.7871 -24.6094 59.0332 -22.5098 62.793 -22.5098 Z M 62.793 -5.22461 C 67.041 -5.22461 70.0684 -7.61719 70.0684 -11.6211 C 70.0684 -15.5273 67.041 -17.9688 62.793 -17.9688 C 58.5938 -17.9688 55.4199 -15.5762 55.4199 -11.6211 C 55.4199 -7.61719 58.5938 -5.22461 62.793 -5.22461 Z"/>
  </g>
  <g id="Bold-M" transform="matrix(1 0 0 1 2277.58 1126)">
   <path d="M 25 12.9883 L 99.8535 12.9883 C 108.789 12.9883 114.844 6.05469 114.844 -2.05078 C 114.844 -4.54102 114.209 -7.08008 112.842 -9.47266 L 75.3906 -74.9512 C 72.4609 -79.9805 67.5293 -82.5195 62.4023 -82.5195 C 57.3242 -82.5195 52.2461 -79.9316 49.4141 -74.9512 L 11.9141 -9.42383 C 10.5957 -7.08008 9.96094 -4.54102 9.96094 -2.05078 C 9.96094 6.05469 16.0156 12.9883 25 12.9883 Z M 27.4902 0.683594 C 25.0977 0.683594 23.5352 -1.26953 23.5352 -3.41797 C 23.5352 -4.00391 23.6328 -4.83398 23.9746 -5.46875 L 58.9844 -67.0898 C 59.7168 -68.3594 61.084 -68.8965 62.4023 -68.8965 C 63.7207 -68.8965 65.0391 -68.3105 65.7715 -67.041 L 100.781 -5.41992 C 101.123 -4.73633 101.27 -4.00391 101.27 -3.41797 C 101.27 -1.26953 99.6582 0.683594 97.3145 0.683594 Z M 62.207 -22.3633 C 65.4297 -22.3633 67.334 -24.1699 67.4805 -27.5391 L 68.2617 -47.0215 C 68.4082 -50.5859 65.8691 -53.0273 62.1094 -53.0273 C 58.3496 -53.0273 55.9082 -50.5859 56.0059 -47.0703 L 56.7871 -27.4902 C 56.9336 -24.1699 58.8867 -22.3633 62.207 -22.3633 Z M 62.207 -5.56641 C 65.918 -5.56641 68.75 -7.91016 68.75 -11.4746 C 68.75 -15.0391 65.9668 -17.3828 62.207 -17.3828 C 58.4473 -17.3828 55.5664 -15.0391 55.5664 -11.4746 C 55.5664 -7.91016 58.4473 -5.56641 62.207 -5.56641 Z"/>
  </g>
  <g id="Semibold-M" transform="matrix(1 0 0 1 1981.38 1126)">
   <path d="M 24.4141 12.2559 L 99.3652 12.2559 C 108.105 12.2559 113.818 5.66406 113.818 -2.24609 C 113.818 -4.63867 113.184 -7.12891 111.914 -9.375 L 74.3652 -74.9023 C 71.582 -79.7363 66.7969 -82.1777 61.9141 -82.1777 C 57.0312 -82.1777 52.1484 -79.6875 49.4141 -74.9023 L 11.8652 -9.32617 C 10.5957 -7.08008 9.96094 -4.63867 9.96094 -2.24609 C 9.96094 5.66406 15.6738 12.2559 24.4141 12.2559 Z M 26.0254 1.61133 C 23.291 1.61133 21.4844 -0.634766 21.4844 -3.125 C 21.4844 -3.80859 21.582 -4.6875 21.9727 -5.46875 L 57.959 -68.5547 C 58.7891 -70.0195 60.4004 -70.7031 61.9141 -70.7031 C 63.4277 -70.7031 64.9414 -70.0195 65.8203 -68.5059 L 101.758 -5.41992 C 102.148 -4.63867 102.344 -3.80859 102.344 -3.125 C 102.344 -0.634766 100.488 1.61133 97.7539 1.61133 Z M 61.7676 -22.2656 C 64.6973 -22.2656 66.3574 -23.877 66.5039 -26.9531 L 67.2363 -48.7305 C 67.334 -51.8555 65.0391 -54.1016 61.7188 -54.1016 C 58.3496 -54.1016 56.1035 -51.9043 56.2012 -48.7305 L 56.9336 -26.9043 C 57.0312 -23.9258 58.7891 -22.2656 61.7676 -22.2656 Z M 61.7676 -5.81055 C 65.1855 -5.81055 67.8711 -8.05664 67.8711 -11.377 C 67.8711 -14.6973 65.1855 -16.9922 61.7676 -16.9922 C 58.3496 -16.9922 55.6152 -14.6973 55.6152 -11.377 C 55.6152 -8.10547 58.3496 -5.81055 61.7676 -5.81055 Z"/>
  </g>
  <g id="Medium-M" transform="matrix(1 0 0 1 1685.06 1126)">
   <path d="M 24.0234 11.6699 L 99.0234 11.6699 C 107.568 11.6699 113.037 5.37109 113.037 -2.39258 C 113.037 -4.73633 112.451 -7.12891 111.182 -9.32617 L 73.584 -74.8535 C 70.9473 -79.541 66.2598 -81.9336 61.5234 -81.9336 C 56.7871 -81.9336 52.0508 -79.4922 49.4141 -74.8535 L 11.8164 -9.27734 C 10.5469 -7.08008 9.96094 -4.73633 9.96094 -2.39258 C 9.96094 5.37109 15.4785 11.6699 24.0234 11.6699 Z M 24.9512 2.29492 C 21.9238 2.29492 19.9219 -0.195312 19.9219 -2.88086 C 19.9219 -3.66211 20.0195 -4.63867 20.5078 -5.51758 L 57.1289 -69.6289 C 58.1055 -71.2891 59.8145 -72.0703 61.5234 -72.0703 C 63.2324 -72.0703 64.8926 -71.2891 65.8203 -69.6289 L 102.49 -5.41992 C 102.93 -4.58984 103.125 -3.66211 103.125 -2.88086 C 103.125 -0.195312 101.074 2.29492 98.0469 2.29492 Z M 61.4258 -22.168 C 64.1113 -22.168 65.6738 -23.6328 65.7227 -26.5137 L 66.4551 -50 C 66.5527 -52.8809 64.4043 -54.9316 61.377 -54.9316 C 58.3496 -54.9316 56.25 -52.8809 56.3477 -50.0488 L 57.0312 -26.4648 C 57.1289 -23.6816 58.6914 -22.168 61.4258 -22.168 Z M 61.4258 -5.95703 C 64.5996 -5.95703 67.1875 -8.20312 67.1875 -11.3281 C 67.1875 -14.4531 64.6484 -16.6992 61.4258 -16.6992 C 58.252 -16.6992 55.6641 -14.4043 55.6641 -11.3281 C 55.6641 -8.25195 58.3008 -5.95703 61.4258 -5.95703 Z"/>
  </g>
  <g id="Regular-M" transform="matrix(1 0 0 1 1388.83 1126)">
   <path d="M 23.4375 10.8887 L 98.584 10.8887 C 106.885 10.8887 112.061 4.93164 112.061 -2.58789 C 112.061 -4.83398 111.475 -7.12891 110.254 -9.22852 L 72.6074 -74.8047 C 70.0684 -79.248 65.5762 -81.6406 61.0352 -81.6406 C 56.4453 -81.6406 51.9531 -79.248 49.4141 -74.8047 L 11.7676 -9.17969 C 10.5469 -7.08008 9.96094 -4.83398 9.96094 -2.58789 C 9.96094 4.93164 15.1367 10.8887 23.4375 10.8887 Z M 23.4863 3.22266 C 20.1172 3.22266 17.8711 0.439453 17.8711 -2.58789 C 17.8711 -3.4668 18.0176 -4.49219 18.5059 -5.51758 L 56.1035 -71.0938 C 57.1777 -72.9492 59.1309 -73.8281 61.0352 -73.8281 C 62.9395 -73.8281 64.7949 -72.998 65.8691 -71.0938 L 103.418 -5.46875 C 103.955 -4.49219 104.199 -3.4668 104.199 -2.58789 C 104.199 0.439453 101.855 3.22266 98.4863 3.22266 Z M 61.0352 -22.0215 C 63.3789 -22.0215 64.6973 -23.3887 64.7461 -25.9277 L 65.4785 -51.6602 C 65.5273 -54.1504 63.5742 -56.0059 60.9863 -56.0059 C 58.3496 -56.0059 56.4941 -54.1992 56.543 -51.709 L 57.1777 -25.9277 C 57.2266 -23.4375 58.5938 -22.0215 61.0352 -22.0215 Z M 61.0352 -6.15234 C 63.8184 -6.15234 66.3086 -8.39844 66.3086 -11.2305 C 66.3086 -14.1113 63.8672 -16.3086 61.0352 -16.3086 C 58.1543 -16.3086 55.7617 -14.0625 55.7617 -11.2305 C 55.7617 -8.44727 58.2031 -6.15234 61.0352 -6.15234 Z"/>
  </g>
  <g id="Light-M" transform="matrix(1 0 0 1 1092.64 1126)">
   <path d="M 22.6562 10.498 L 98.3887 10.498 C 106.055 10.498 111.035 4.73633 111.035 -2.24609 C 111.035 -4.29688 110.498 -6.49414 109.326 -8.49609 L 71.3867 -74.9023 C 68.9941 -79.1016 64.7949 -81.2988 60.498 -81.2988 C 56.25 -81.2988 51.9531 -79.1016 49.6094 -74.9023 L 11.6211 -8.39844 C 10.498 -6.44531 9.96094 -4.29688 9.96094 -2.24609 C 9.96094 4.73633 14.9414 10.498 22.6562 10.498 Z M 22.7051 4.54102 C 18.75 4.54102 16.1133 1.31836 16.1133 -2.24609 C 16.1133 -3.22266 16.2598 -4.39453 16.8457 -5.61523 L 54.7852 -72.0703 C 56.0059 -74.2676 58.252 -75.293 60.498 -75.293 C 62.7441 -75.293 64.9414 -74.2676 66.2109 -72.0703 L 104.053 -5.56641 C 104.639 -4.49219 104.932 -3.27148 104.932 -2.24609 C 104.932 1.31836 102.197 4.54102 98.291 4.54102 Z M 60.498 -22.0215 C 62.3535 -22.0215 63.4766 -23.1445 63.4766 -25.1953 L 64.0625 -51.3184 C 64.1113 -53.3203 62.5488 -54.834 60.498 -54.834 C 58.3496 -54.834 56.8848 -53.3691 56.9336 -51.3184 L 57.4707 -25.1953 C 57.5195 -23.1934 58.5938 -22.0215 60.498 -22.0215 Z M 60.498 -6.88477 C 62.9395 -6.88477 65.0391 -8.88672 65.0391 -11.2793 C 65.0391 -13.7695 62.9883 -15.7227 60.498 -15.7227 C 58.0078 -15.7227 55.957 -13.7207 55.957 -11.2793 C 55.957 -8.88672 58.0566 -6.88477 60.498 -6.88477 Z"/>
  </g>
  <g id="Thin-M" transform="matrix(1 0 0 1 796.608 1126)">
   <path d="M 21.582 9.91211 L 98.0957 9.91211 C 104.98 9.91211 109.668 4.44336 109.668 -1.70898 C 109.668 -3.66211 109.229 -5.61523 108.105 -7.4707 L 69.7754 -75.0977 C 67.627 -78.9062 63.7207 -80.9082 59.8145 -80.9082 C 55.957 -80.9082 51.9531 -78.9062 49.8047 -75.0977 L 11.4258 -7.37305 C 10.4492 -5.61523 9.96094 -3.66211 9.96094 -1.70898 C 9.96094 4.44336 14.6973 9.91211 21.582 9.91211 Z M 21.6309 6.29883 C 16.9434 6.29883 13.7207 2.49023 13.7207 -1.70898 C 13.7207 -2.92969 13.9648 -4.29688 14.6484 -5.76172 L 52.9785 -73.3398 C 54.4434 -75.9766 57.1289 -77.2461 59.8145 -77.2461 C 62.5488 -77.2461 65.0879 -76.0254 66.6016 -73.3398 L 104.834 -5.76172 C 105.566 -4.44336 105.908 -2.97852 105.908 -1.70898 C 105.908 2.49023 102.686 6.29883 98.0469 6.29883 Z M 59.8145 -21.9727 C 60.9863 -21.9727 61.7676 -22.8516 61.8164 -24.2676 L 62.207 -50.8301 C 62.207 -52.2461 61.2305 -53.2227 59.8145 -53.2227 C 58.3984 -53.2227 57.4219 -52.2461 57.4707 -50.8301 L 57.8613 -24.2676 C 57.8613 -22.9004 58.6426 -21.9727 59.8145 -21.9727 Z M 59.8145 -7.8125 C 61.8164 -7.8125 63.3789 -9.47266 63.3789 -11.377 C 63.3789 -13.2812 61.8164 -14.8926 59.8145 -14.8926 C 57.8613 -14.8926 56.25 -13.2812 56.25 -11.377 C 56.25 -9.47266 57.8613 -7.8125 59.8145 -7.8125 Z"/>
  </g>
  <g id="Ultralight-M" transform="matrix(1 0 0 1 500.263 1126)">
   <path d="M 20.9961 9.66797 L 97.9492 9.66797 C 104.395 9.66797 108.936 4.29688 108.936 -1.46484 C 108.936 -3.32031 108.545 -5.17578 107.52 -6.98242 L 68.9941 -75.1465 C 66.9434 -78.8086 63.1836 -80.6641 59.4727 -80.6641 C 55.8105 -80.6641 51.9531 -78.8086 49.9023 -75.1465 L 11.3281 -6.83594 C 10.4004 -5.17578 9.96094 -3.32031 9.96094 -1.46484 C 9.96094 4.29688 14.5508 9.66797 20.9961 9.66797 Z M 21.0938 7.17773 C 16.0156 7.17773 12.5488 3.125 12.5488 -1.46484 C 12.5488 -2.7832 12.793 -4.19922 13.5254 -5.85938 L 52.0996 -74.0234 C 53.6621 -76.8555 56.543 -78.2227 59.4727 -78.2227 C 62.4512 -78.2227 65.1855 -76.9043 66.7969 -74.0234 L 105.225 -5.85938 C 106.055 -4.39453 106.396 -2.83203 106.396 -1.46484 C 106.396 3.125 102.93 7.17773 97.9004 7.17773 Z M 59.4727 -21.9727 C 60.3027 -21.9727 60.9375 -22.7051 60.9375 -23.8281 L 61.2305 -50.5859 C 61.2305 -51.6602 60.5957 -52.3926 59.4727 -52.3926 C 58.3984 -52.3926 57.7148 -51.6602 57.7148 -50.5859 L 58.0078 -23.8281 C 58.0078 -22.7051 58.6426 -21.9727 59.4727 -21.9727 Z M 59.4727 -8.30078 C 61.1816 -8.30078 62.5488 -9.81445 62.5488 -11.377 C 62.5488 -13.0371 61.1816 -14.4531 59.4727 -14.4531 C 57.7637 -14.4531 56.3965 -13.0371 56.3965 -11.377 C 56.3965 -9.81445 57.7637 -8.30078 59.4727 -8.30078 Z"/>
  </g>
  <g id="Black-S" transform="matrix(1 0 0 1 2883.47 696)">
   <path d="M 20.752 4.15039 L 79.1504 4.15039 C 86.6699 4.15039 92.041 -2.05078 92.041 -8.83789 C 92.041 -10.9863 91.5527 -13.1836 90.3809 -15.2344 L 61.1328 -66.4551 C 58.5938 -70.8496 54.3457 -72.9492 49.9512 -72.9492 C 45.5566 -72.9492 41.1621 -70.752 38.7207 -66.4551 L 9.47266 -15.1855 C 8.34961 -13.1836 7.8125 -10.9863 7.8125 -8.83789 C 7.8125 -2.05078 13.1836 4.15039 20.752 4.15039 Z M 24.5117 -9.0332 C 23.4375 -9.0332 22.7051 -9.91211 22.7051 -10.9375 C 22.7051 -11.1816 22.7539 -11.6211 22.9004 -11.9141 L 48.3887 -57.1777 C 48.6816 -57.7148 49.3652 -57.9102 49.9512 -57.9102 C 50.5371 -57.9102 51.1719 -57.666 51.4648 -57.1289 L 77.002 -11.8164 C 77.1484 -11.5234 77.1973 -11.1328 77.1973 -10.9375 C 77.1973 -9.91211 76.4648 -9.0332 75.3906 -9.0332 Z M 49.6094 -25.3906 C 52.832 -25.3906 54.7363 -27.1484 54.9316 -30.4688 L 55.6152 -41.0156 C 55.7617 -44.5801 53.3691 -46.9238 49.5605 -46.9238 C 45.752 -46.9238 43.3594 -44.5801 43.5059 -41.0156 L 44.1895 -30.3711 C 44.3848 -27.1484 46.3379 -25.3906 49.6094 -25.3906 Z M 49.6094 -11.5234 C 53.2227 -11.5234 55.7617 -13.4277 55.7617 -16.7969 C 55.7617 -20.1172 53.2227 -22.0703 49.6094 -22.0703 C 45.9961 -22.0703 43.3594 -20.166 43.3594 -16.7969 C 43.3594 -13.4277 45.9961 -11.5234 49.6094 -11.5234 Z"/>
  </g>
  <g id="Heavy-S" transform="matrix(1 0 0 1 2587.2 696)">
   <path d="M 20.2637 3.41797 L 78.7109 3.41797 C 86.084 3.41797 91.1621 -2.44141 91.1621 -9.08203 C 91.1621 -11.1328 90.6738 -13.2812 89.5508 -15.2344 L 60.2539 -66.4062 C 57.8613 -70.6055 53.7598 -72.6562 49.5117 -72.6562 C 45.2637 -72.6562 41.0645 -70.5078 38.7207 -66.4062 L 9.42383 -15.1855 C 8.34961 -13.2324 7.8125 -11.1328 7.8125 -9.08203 C 7.8125 -2.44141 12.8906 3.41797 20.2637 3.41797 Z M 23.1445 -8.25195 C 21.7773 -8.25195 20.8496 -9.375 20.8496 -10.6934 C 20.8496 -11.0352 20.8984 -11.5234 21.0938 -11.9141 L 47.5098 -58.4961 C 47.9004 -59.2285 48.7305 -59.5215 49.5117 -59.5215 C 50.2441 -59.5215 51.0742 -59.1797 51.4648 -58.4961 L 77.8809 -11.8164 C 78.0762 -11.4258 78.1738 -10.9863 78.1738 -10.6934 C 78.1738 -9.375 77.1973 -8.25195 75.8301 -8.25195 Z M 49.2676 -25.293 C 52.1973 -25.293 53.9062 -26.9043 54.1016 -29.9316 L 54.7363 -42.7246 C 54.8828 -45.9473 52.6367 -48.1445 49.2188 -48.1445 C 45.752 -48.1445 43.5059 -45.9961 43.6523 -42.7246 L 44.2871 -29.8828 C 44.4824 -26.9043 46.2402 -25.293 49.2676 -25.293 Z M 49.2676 -11.6699 C 52.5879 -11.6699 54.9805 -13.5742 54.9805 -16.6992 C 54.9805 -19.8242 52.5879 -21.7285 49.2676 -21.7285 C 45.8984 -21.7285 43.4082 -19.8242 43.4082 -16.6992 C 43.4082 -13.5742 45.8984 -11.6699 49.2676 -11.6699 Z"/>
  </g>
  <g id="Bold-S" transform="matrix(1 0 0 1 2290.98 696)">
   <path d="M 19.7754 2.63672 L 78.2715 2.63672 C 85.4004 2.63672 90.1855 -2.83203 90.1855 -9.32617 C 90.1855 -11.3281 89.6484 -13.3301 88.623 -15.2344 L 59.3262 -66.3086 C 56.9824 -70.3125 53.0762 -72.3633 49.0234 -72.3633 C 44.9707 -72.3633 40.9668 -70.2637 38.6719 -66.3086 L 9.375 -15.1855 C 8.30078 -13.3301 7.8125 -11.3281 7.8125 -9.32617 C 7.8125 -2.83203 12.5977 2.63672 19.7754 2.63672 Z M 21.6797 -7.37305 C 19.9219 -7.37305 18.7988 -8.83789 18.7988 -10.4004 C 18.7988 -10.8398 18.8477 -11.4258 19.0918 -11.9141 L 46.4844 -60.0098 C 47.0215 -60.9375 48.0469 -61.3281 49.0234 -61.3281 C 49.9512 -61.3281 50.9277 -60.9375 51.4648 -60.0098 L 78.8574 -11.8164 C 79.1504 -11.3281 79.248 -10.791 79.248 -10.4004 C 79.248 -8.83789 78.0762 -7.37305 76.3184 -7.37305 Z M 48.8281 -25.1465 C 51.4648 -25.1465 53.0273 -26.6113 53.125 -29.3457 L 53.8086 -44.6289 C 53.9062 -47.5098 51.8066 -49.5117 48.7793 -49.5117 C 45.752 -49.5117 43.7012 -47.5586 43.7988 -44.6777 L 44.4336 -29.2969 C 44.5312 -26.6113 46.1426 -25.1465 48.8281 -25.1465 Z M 48.8281 -11.8164 C 51.8555 -11.8164 54.1504 -13.7207 54.1504 -16.6016 C 54.1504 -19.4824 51.8555 -21.3867 48.8281 -21.3867 C 45.8008 -21.3867 43.457 -19.4824 43.457 -16.6016 C 43.457 -13.7207 45.8496 -11.8164 48.8281 -11.8164 Z"/>
  </g>
  <g id="Semibold-S" transform="matrix(1 0 0 1 1994.61 696)">
   <path d="M 19.3848 2.09961 L 77.9297 2.09961 C 84.9609 2.09961 89.502 -3.125 89.502 -9.52148 C 89.502 -11.4258 88.9648 -13.4277 87.9395 -15.2344 L 58.6426 -66.2598 C 56.3965 -70.1172 52.5879 -72.1191 48.6816 -72.1191 C 44.7266 -72.1191 40.8691 -70.1172 38.6719 -66.2598 L 9.375 -15.1855 C 8.30078 -13.3789 7.8125 -11.4258 7.8125 -9.52148 C 7.8125 -3.125 12.3535 2.09961 19.3848 2.09961 Z M 20.6055 -6.78711 C 18.6523 -6.78711 17.334 -8.39844 17.334 -10.2051 C 17.334 -10.6934 17.4316 -11.3281 17.7246 -11.9141 L 45.8008 -61.0352 C 46.4355 -62.1094 47.5586 -62.5977 48.6816 -62.5977 C 49.7559 -62.5977 50.8301 -62.1094 51.4648 -61.0352 L 79.541 -11.8164 C 79.834 -11.2793 79.9805 -10.6934 79.9805 -10.2051 C 79.9805 -8.39844 78.6133 -6.78711 76.6602 -6.78711 Z M 48.5352 -25.0488 C 50.9766 -25.0488 52.3926 -26.416 52.4902 -28.9551 L 53.125 -45.9961 C 53.2227 -48.584 51.2695 -50.4395 48.4863 -50.4395 C 45.7031 -50.4395 43.8477 -48.6328 43.8965 -45.9961 L 44.5312 -28.9551 C 44.6289 -26.416 46.0449 -25.0488 48.5352 -25.0488 Z M 48.5352 -11.9141 C 51.3184 -11.9141 53.5645 -13.8184 53.5645 -16.5527 C 53.5645 -19.2383 51.3672 -21.1426 48.5352 -21.1426 C 45.752 -21.1426 43.5059 -19.2383 43.5059 -16.5527 C 43.5059 -13.8184 45.8008 -11.9141 48.5352 -11.9141 Z"/>
  </g>
  <g id="Medium-S" transform="matrix(1 0 0 1 1698.17 696)">
   <path d="M 19.1406 1.66016 L 77.6855 1.66016 C 84.6191 1.66016 88.9648 -3.36914 88.9648 -9.66797 C 88.9648 -11.5234 88.4766 -13.4766 87.4512 -15.2344 L 58.1543 -66.2109 C 55.957 -69.9707 52.2461 -71.9727 48.3887 -71.9727 C 44.5801 -71.9727 40.8203 -69.9707 38.6719 -66.2109 L 9.32617 -15.1855 C 8.30078 -13.4277 7.8125 -11.5234 7.8125 -9.66797 C 7.8125 -3.36914 12.207 1.66016 19.1406 1.66016 Z M 19.8242 -6.34766 C 17.6758 -6.34766 16.2598 -8.10547 16.2598 -10.0586 C 16.2598 -10.5957 16.3574 -11.2793 16.6992 -11.8652 L 45.3125 -61.8164 C 45.9473 -62.9883 47.2168 -63.5254 48.3887 -63.5254 C 49.6094 -63.5254 50.7812 -62.9883 51.4648 -61.8164 L 80.0781 -11.8164 C 80.4199 -11.2305 80.5176 -10.5957 80.5176 -10.0586 C 80.5176 -8.10547 79.0527 -6.34766 76.9043 -6.34766 Z M 48.3398 -25 C 50.6348 -25 51.9531 -26.2207 52.002 -28.6621 L 52.6367 -46.9727 C 52.6855 -49.4141 50.8301 -51.1719 48.291 -51.1719 C 45.7031 -51.1719 43.9453 -49.4141 43.9941 -47.0215 L 44.5801 -28.6621 C 44.6777 -26.2695 45.9961 -25 48.3398 -25 Z M 48.3398 -12.0117 C 50.9277 -12.0117 53.125 -13.8672 53.125 -16.5039 C 53.125 -19.0918 50.9766 -20.9473 48.3398 -20.9473 C 45.7031 -20.9473 43.5547 -19.043 43.5547 -16.5039 C 43.5547 -13.916 45.752 -12.0117 48.3398 -12.0117 Z"/>
  </g>
  <g id="Regular-S" transform="matrix(1 0 0 1 1401.77 696)">
   <path d="M 18.75 1.12305 L 77.3438 1.12305 C 84.1309 1.12305 88.3301 -3.66211 88.3301 -9.86328 C 88.3301 -11.6211 87.793 -13.5254 86.8164 -15.2344 L 57.4707 -66.1621 C 55.4199 -69.8242 51.7578 -71.7285 48.0469 -71.7285 C 44.3359 -71.7285 40.7227 -69.8242 38.6719 -66.1621 L 9.32617 -15.2344 C 8.30078 -13.4766 7.8125 -11.6211 7.8125 -9.86328 C 7.8125 -3.66211 11.9629 1.12305 18.75 1.12305 Z M 18.7988 -5.76172 C 16.4551 -5.76172 14.8438 -7.71484 14.8438 -9.86328 C 14.8438 -10.4492 14.9414 -11.2305 15.332 -11.8652 L 44.6289 -62.8418 C 45.3613 -64.1602 46.7285 -64.7949 48.0469 -64.7949 C 49.3652 -64.7949 50.6836 -64.1602 51.4648 -62.8418 L 80.7617 -11.8164 C 81.1035 -11.1816 81.25 -10.4492 81.25 -9.86328 C 81.25 -7.71484 79.6387 -5.76172 77.2461 -5.76172 Z M 48.0469 -24.9023 C 50.1465 -24.9023 51.3184 -26.0254 51.3672 -28.2715 L 52.002 -48.291 C 52.002 -50.4395 50.293 -52.0996 47.998 -52.0996 C 45.7031 -52.0996 44.043 -50.4883 44.0918 -48.3398 L 44.6777 -28.2715 C 44.7266 -26.0742 45.8984 -24.9023 48.0469 -24.9023 Z M 48.0469 -12.1094 C 50.4395 -12.1094 52.5391 -13.9648 52.5391 -16.4062 C 52.5391 -18.8477 50.4883 -20.7031 48.0469 -20.7031 C 45.6543 -20.7031 43.6035 -18.7988 43.6035 -16.4062 C 43.6035 -14.0137 45.7031 -12.1094 48.0469 -12.1094 Z"/>
  </g>
  <g id="Light-S" transform="matrix(1 0 0 1 1105.53 696)">
   <path d="M 18.0664 0.732422 L 77.1484 0.732422 C 83.3984 0.732422 87.4023 -3.85742 87.4023 -9.52148 C 87.4023 -11.1816 86.9629 -12.9395 86.0352 -14.5508 L 56.3965 -66.2598 C 54.4922 -69.6777 51.0742 -71.4355 47.6074 -71.4355 C 44.1406 -71.4355 40.7227 -69.6777 38.8184 -66.2598 L 9.17969 -14.502 C 8.25195 -12.9395 7.8125 -11.1816 7.8125 -9.52148 C 7.8125 -3.85742 11.8164 0.732422 18.0664 0.732422 Z M 18.1152 -4.58984 C 15.2344 -4.58984 13.2812 -6.93359 13.2812 -9.52148 C 13.2812 -10.2539 13.4277 -11.1328 13.8672 -11.9629 L 43.4082 -63.7207 C 44.3359 -65.332 45.9961 -66.0645 47.6074 -66.0645 C 49.2188 -66.0645 50.8301 -65.332 51.7578 -63.7207 L 81.2988 -11.9629 C 81.7383 -11.1328 81.9336 -10.2539 81.9336 -9.52148 C 81.9336 -6.93359 79.9316 -4.58984 77.0996 -4.58984 Z M 47.6074 -24.9023 C 49.2188 -24.9023 50.1953 -25.8301 50.2441 -27.6367 L 50.7324 -47.9492 C 50.7812 -49.707 49.4141 -51.0254 47.5586 -51.0254 C 45.7031 -51.0254 44.4336 -49.7559 44.4336 -47.998 L 44.9219 -27.6367 C 44.9707 -25.8789 45.8984 -24.9023 47.6074 -24.9023 Z M 47.6074 -12.7441 C 49.6582 -12.7441 51.4648 -14.4043 51.4648 -16.4551 C 51.4648 -18.5547 49.707 -20.166 47.6074 -20.166 C 45.5078 -20.166 43.7988 -18.5059 43.7988 -16.4551 C 43.7988 -14.4531 45.5566 -12.7441 47.6074 -12.7441 Z"/>
  </g>
  <g id="Thin-S" transform="matrix(1 0 0 1 809.425 696)">
   <path d="M 17.0898 0.244141 L 76.9043 0.244141 C 82.4707 0.244141 86.1816 -4.10156 86.1816 -9.08203 C 86.1816 -10.6445 85.8398 -12.207 84.9609 -13.6719 L 54.9805 -66.4062 C 53.2715 -69.4824 50.1465 -71.0938 47.0215 -71.0938 C 43.8965 -71.0938 40.7227 -69.4824 38.9648 -66.4062 L 8.98438 -13.623 C 8.20312 -12.207 7.8125 -10.6445 7.8125 -9.08203 C 7.8125 -4.10156 11.5723 0.244141 17.0898 0.244141 Z M 17.1387 -3.02734 C 13.623 -3.02734 11.2305 -5.9082 11.2305 -9.08203 C 11.2305 -10.0098 11.377 -11.0352 11.9141 -12.1094 L 41.8457 -64.8438 C 42.9688 -66.7969 44.9707 -67.7734 47.0215 -67.7734 C 49.0723 -67.7734 50.9766 -66.8457 52.0996 -64.8438 L 81.9824 -12.1094 C 82.5195 -11.1328 82.8125 -10.0098 82.8125 -9.08203 C 82.8125 -5.9082 80.3711 -3.02734 76.8555 -3.02734 Z M 47.0215 -24.8535 C 48.0469 -24.8535 48.7305 -25.5859 48.7305 -26.8555 L 49.0723 -47.5586 C 49.1211 -48.7793 48.2422 -49.6094 47.0215 -49.6094 C 45.752 -49.6094 44.9219 -48.7793 44.9219 -47.5586 L 45.2637 -26.8555 C 45.2637 -25.6348 45.9473 -24.8535 47.0215 -24.8535 Z M 47.0215 -13.5742 C 48.6328 -13.5742 50 -14.9414 50 -16.5039 C 50 -18.1152 48.6816 -19.4336 47.0215 -19.4336 C 45.3613 -19.4336 44.043 -18.1152 44.043 -16.5039 C 44.043 -14.9414 45.3613 -13.5742 47.0215 -13.5742 Z"/>
  </g>
  <g id="Ultralight-S" transform="matrix(1 0 0 1 513.031 696)">
   <path d="M 16.6016 0 L 76.8066 0 C 81.9336 0 85.5469 -4.19922 85.5469 -8.83789 C 85.5469 -10.3027 85.2539 -11.8164 84.4238 -13.2324 L 54.248 -66.5039 C 52.6367 -69.3848 49.6582 -70.8984 46.6797 -70.8984 C 43.7988 -70.8984 40.7227 -69.3848 39.1113 -66.5039 L 8.88672 -13.1348 C 8.1543 -11.8164 7.8125 -10.3027 7.8125 -8.83789 C 7.8125 -4.19922 11.4746 0 16.6016 0 Z M 16.6504 -2.24609 C 12.793 -2.24609 10.1562 -5.37109 10.1562 -8.83789 C 10.1562 -9.86328 10.3516 -10.9375 10.9375 -12.207 L 41.0645 -65.4297 C 42.2363 -67.5781 44.4336 -68.6523 46.6797 -68.6523 C 48.9258 -68.6523 51.0742 -67.627 52.2949 -65.4297 L 82.3242 -12.207 C 82.959 -11.084 83.252 -9.91211 83.252 -8.83789 C 83.252 -5.37109 80.5664 -2.24609 76.7578 -2.24609 Z M 46.6797 -24.8535 C 47.4609 -24.8535 47.998 -25.4883 47.998 -26.416 L 48.2422 -47.3145 C 48.2422 -48.2422 47.6562 -48.877 46.6797 -48.877 C 45.752 -48.877 45.166 -48.2422 45.166 -47.3145 L 45.4102 -26.416 C 45.4102 -25.4883 45.9473 -24.8535 46.6797 -24.8535 Z M 46.6797 -14.0137 C 48.0957 -14.0137 49.2676 -15.2344 49.2676 -16.5527 C 49.2676 -17.9199 48.1445 -19.0918 46.6797 -19.0918 C 45.2637 -19.0918 44.1406 -17.9199 44.1406 -16.5527 C 44.1406 -15.2344 45.2637 -14.0137 46.6797 -14.0137 Z"/>
  </g>
 </g>
</svg>
